<svg width="76" height="75" viewBox="0 0 76 75" fill="none" xmlns="http://www.w3.org/2000/svg">
<path d="M3.37036 3.4939H72.6296V70.8644H3.37036V3.4939Z" fill="url(#paint0_radial_56_6)"/>
<path d="M3.3704 3.49381H72.6297V70.8642H3.3704V3.49381ZM0.22229 74.0124H75.7778V0.345703H0.22229V74.0124ZM53.6778 35.8568C55.2832 35.8568 55.8499 35.8568 56.0073 35.7939C56.0073 35.5735 56.0703 35.416 56.0703 35.2586C56.0703 33.5586 55.2518 30.4105 51.9777 30.4105C48.9554 30.4105 47.6648 33.0549 47.3499 35.8568H53.6778V35.8568ZM47.2871 40.1697C47.3501 44.4198 49.3649 47.2846 54.15 47.2846C56.0075 47.2846 57.6129 47.0329 59.2816 46.3088C59.5019 46.2144 59.6595 46.2458 59.6595 46.5291V50.4643C59.6595 50.7791 59.565 50.9366 59.3447 51.094C57.6761 51.9124 55.5983 52.2902 53.0169 52.2902C44.7059 52.2902 41.5891 46.1514 41.5891 39.32C41.5891 31.8903 45.43 25.8145 52.1985 25.8145C59.0614 25.8145 61.454 31.5755 61.454 36.2663C61.454 37.7774 61.3596 39.0052 61.2022 39.6034C61.1393 39.8552 61.0448 39.9498 60.7929 40.0127C60.1632 40.1071 58.3058 40.2329 55.5354 40.2329H47.2871V40.1697ZM30.4132 36.9587C29.5317 33.4642 27.3908 25.8457 26.6038 22.1623H26.5408C25.8798 25.8457 24.1482 32.0789 22.8575 36.9587H30.4132V36.9587ZM21.5667 42.0587L19.0797 51.4717C19.0167 51.7234 18.9223 51.8179 18.6074 51.8179H13.9796C13.6649 51.8179 13.6018 51.7235 13.6649 51.3458L22.6055 20.0846C22.7629 19.518 22.8573 19.0772 22.9203 17.5032C22.9203 17.2829 23.0147 17.1884 23.1721 17.1884H29.7832C30.0036 17.1884 30.098 17.2514 30.1611 17.5032L40.1721 51.4087C40.2351 51.6604 40.1721 51.8179 39.9203 51.8179H34.7259C34.4741 51.8179 34.3166 51.7235 34.2536 51.5033L31.6721 42.0589H21.5667V42.0587Z" fill="#D8A1FF"/>
<defs>
<radialGradient id="paint0_radial_56_6" cx="0" cy="0" r="1" gradientUnits="userSpaceOnUse" gradientTransform="translate(26.181 18.5917) scale(52.637 50.9623)">
<stop stop-color="#442F55" stop-opacity="0.98"/>
<stop offset="1" stop-color="#12002C"/>
</radialGradient>
</defs>
</svg>
