<svg width="100" height="63" viewBox="0 0 100 63" fill="none" xmlns="http://www.w3.org/2000/svg">
<path d="M37.8015 46.3796C37.8017 46.3797 37.8016 46.38 37.8013 46.38H21.7048C18.7396 46.38 16.1175 48.305 15.2292 51.134L12.4151 60.0961C12.302 60.6189 11.8483 60.9676 11.3385 60.9096H0.685391C0.0619666 60.9096 -0.107761 60.5609 0.0619671 59.8634L18.3088 6.2189C18.4785 5.63752 18.6488 5.11471 18.8757 4.41728C19.0776 3.33106 19.1894 2.19842 19.2116 1.06068C19.217 0.780522 19.1472 0.47034 19.3085 0.241167V0.241167C19.4779 0.000385264 19.8172 0 20.1116 0H34.3454V0C34.9763 0 35.1863 0.763787 35.3941 1.35951L55.7654 59.7468C55.9357 60.3862 55.7654 60.6769 55.1985 60.6769H44.563C43.7588 60.6769 42.6648 60.812 42.4483 60.0375V60.0375L37.8876 46.3475C37.8718 46.2999 37.8014 46.3113 37.8014 46.3615V46.3794C37.8014 46.3794 37.8015 46.3795 37.8015 46.3796V46.3796ZM20.0088 34.8144C20.0088 34.8144 20.0089 34.8143 20.0089 34.8143H30.0186C32.2212 34.8143 33.8033 32.7166 33.0985 30.6297V30.6297C32.5883 29.0608 32.0785 27.3752 31.5688 25.6316C31.002 23.83 30.4922 22.0864 29.9254 20.2848C29.3585 18.4832 28.8488 16.7976 28.3957 15.112C27.9482 13.5048 27.5558 12.0113 27.1637 10.6309C27.1549 10.6 27.1266 10.5787 27.0945 10.5787V10.5787C27.0602 10.5787 27.0308 10.6028 27.0239 10.6363C26.5158 13.1161 25.8964 15.596 25.1088 18.0764C24.2591 20.8662 23.4088 23.772 22.502 26.6783C21.7654 29.642 20.8587 32.3735 20.009 34.8144C20.0089 34.8145 20.0088 34.8145 20.0088 34.8144V34.8144ZM89.1414 41.1487C89.1416 41.1489 89.1415 41.1493 89.1412 41.1493H76.6824C73.7608 41.1493 71.4067 43.8321 72.9351 46.322V46.322C73.9551 47.891 75.3717 49.1118 77.0717 49.8092C79.3385 50.7973 81.8317 51.3201 84.3248 51.2621C86.3083 51.2041 88.2917 51.0294 90.218 50.6227C91.6555 50.4323 93.0552 50.0864 94.3859 49.6166C94.9709 49.4101 95.7146 49.1303 95.7146 49.7506V49.7506V58.6432C95.7146 58.7537 95.7018 58.864 95.6824 58.9744C95.6392 59.2189 95.5478 59.4596 95.3626 59.625V59.625C95.2648 59.7124 95.1448 59.7746 95.0246 59.8274C93.2678 60.5991 91.4558 61.1538 89.538 61.491C86.8746 62.0138 84.2112 62.2464 81.4912 62.1884C77.1843 62.1884 73.558 61.491 70.6112 60.1541C67.8346 58.9333 65.398 57.0157 63.4712 54.6327C61.658 52.3663 60.3546 49.8086 59.5614 47.0189C58.7683 44.2872 58.3712 41.4394 58.3712 38.5336C58.3712 35.3951 58.8243 32.3147 59.7877 29.2923C60.6946 26.3865 62.1111 23.7128 64.0375 21.3298C65.9077 19.0048 68.2306 17.1452 70.894 15.8084C73.5575 14.4715 76.7306 14.0067 80.3575 14.0067C83.3609 13.9487 86.3643 14.5301 89.1409 15.8084C91.4643 16.8545 93.5043 18.424 95.0912 20.4577C96.5643 22.434 97.7546 24.6424 98.4912 27.0834C99.2277 29.4084 99.5677 31.7908 99.5677 34.1738C99.5677 35.5687 99.5112 36.7895 99.4546 37.8936C99.3414 38.9978 99.2843 39.8119 99.2277 40.3347C99.1712 40.7414 98.8312 41.0901 98.4346 41.0901C98.0946 41.0901 97.4712 41.1482 96.5643 41.2062C95.6575 41.3222 94.5809 41.3808 93.2775 41.3808C91.9743 41.3808 90.6145 41.1482 89.1417 41.1482C89.1414 41.1482 89.1412 41.1485 89.1414 41.1487V41.1487ZM71.1785 32.6641C71.1785 32.664 71.1786 32.664 71.1786 32.664H83.1351C84.6083 32.664 85.6854 32.664 86.3648 32.606C86.6332 32.5716 86.9018 32.5167 87.1586 32.4173C87.4994 32.2855 87.6683 31.9252 87.6683 31.5598V31.5598C87.6683 30.8043 87.5551 30.1069 87.3283 29.4095C86.3083 26.155 83.3049 23.946 79.9614 24.0627C76.8449 23.888 73.898 25.5736 72.4248 28.4799C71.745 29.8166 71.3484 31.2112 71.1781 32.6639C71.1781 32.6641 71.1783 32.6642 71.1785 32.6641V32.6641Z" fill="#9999FF"/>
</svg>
