<svg width="82" height="92" viewBox="0 0 82 92" fill="none" xmlns="http://www.w3.org/2000/svg">
<path d="M81.2995 0.198242L73.9016 82.475L40.648 91.6275L7.48585 82.4879L0.0958252 0.198242H81.2995Z" fill="#264DE4"/>
<path d="M67.5681 77.2363L73.8901 6.927H40.6975V84.6321L67.5681 77.2363Z" fill="#2965F1"/>
<path d="M17.0372 37.4468L17.9484 47.5392H40.6976V37.4468H17.0372Z" fill="#EBEBEB"/>
<path d="M40.6977 17.0193H40.6625H15.2065L16.1307 27.1119H40.6977V17.0193Z" fill="#EBEBEB"/>
<path d="M40.6975 74.1579V63.6575L40.653 63.6692L29.3312 60.6342L28.6074 52.585H23.1059H18.4025L19.8268 68.4316L40.6507 74.1708L40.6975 74.1579Z" fill="#EBEBEB"/>
<path d="M53.1806 47.5391L52.0006 60.6283L40.6625 63.6665V74.1664L61.503 68.4322L61.6559 66.7271L64.0448 40.1569L64.2928 37.4467L66.1281 17.0193H40.6625V27.1119H54.9872L54.0622 37.4467H40.6625V47.5391H53.1806Z" fill="#1E2235"/>
</svg>
