<svg width="108" height="162" viewBox="0 0 108 162" fill="none" xmlns="http://www.w3.org/2000/svg">
<path d="M27.148 161.555C41.9702 161.555 53.9999 149.525 53.9999 134.703V107.851H27.148C12.3258 107.851 0.296143 119.881 0.296143 134.703C0.296143 149.525 12.3258 161.555 27.148 161.555Z" fill="#0ACF83"/>
<path d="M0.296143 80.9995C0.296143 66.1773 12.3258 54.1477 27.148 54.1477H53.9999V107.851H27.148C12.3258 107.851 0.296143 95.8217 0.296143 80.9995Z" fill="#A259FF"/>
<path d="M0.296143 27.2959C0.296143 12.4737 12.3258 0.444092 27.148 0.444092H53.9999V54.1478H27.148C12.3258 54.1478 0.296143 42.1181 0.296143 27.2959Z" fill="#F24E1E"/>
<path d="M53.9998 0.444092H80.8517C95.6739 0.444092 107.704 12.4737 107.704 27.2959C107.704 42.1181 95.6739 54.1478 80.8517 54.1478H53.9998V0.444092Z" fill="#FF7262"/>
<path d="M107.704 80.9995C107.704 95.8217 95.6739 107.851 80.8517 107.851C66.0294 107.851 53.9998 95.8217 53.9998 80.9995C53.9998 66.1773 66.0294 54.1477 80.8517 54.1477C95.6739 54.1477 107.704 66.1773 107.704 80.9995Z" fill="#1ABCFE"/>
</svg>
