<svg width="44" height="44" viewBox="0 0 44 44" fill="none" xmlns="http://www.w3.org/2000/svg">
<path d="M42.3148 20.1188L23.8802 1.68516C22.8192 0.623502 21.0974 0.623502 20.035 1.68516L16.207 5.5132L21.0631 10.3692C22.1915 9.98793 23.4856 10.2437 24.3851 11.1433C25.2889 12.0486 25.5429 13.3537 25.1523 14.4857L29.8322 19.1658C30.9645 18.7758 32.2709 19.0281 33.1752 19.9339C34.4391 21.1973 34.4391 23.2449 33.1752 24.5091C31.911 25.7734 29.8634 25.7734 28.5986 24.5091C27.6479 23.5574 27.413 22.1613 27.8943 20.9901L23.5299 16.6257L23.5294 28.111C23.8458 28.2674 24.1348 28.4741 24.3851 28.7229C25.6489 29.9862 25.6489 32.034 24.3851 33.2992C23.1209 34.5629 21.0723 34.5629 19.8099 33.2992C18.546 32.034 18.546 29.9864 19.8099 28.723C20.1128 28.42 20.4727 28.18 20.8689 28.017V16.4247C20.4722 16.2627 20.112 16.0226 19.8099 15.7186C18.8523 14.7623 18.6221 13.3573 19.1128 12.1815L14.3258 7.39406L1.68553 20.0335C0.623378 21.0962 0.623378 22.8182 1.68553 23.88L20.1205 42.314C21.1818 43.3758 22.9033 43.3758 23.966 42.314L42.3147 23.9656C43.3765 22.9035 43.3765 21.1804 42.3147 20.1188" fill="#EF4444"/>
</svg>
