<svg width="44" height="42" viewBox="0 0 44 42" fill="none" xmlns="http://www.w3.org/2000/svg">
<path d="M22.0001 0.409912C10.3422 0.409912 0.888916 9.86156 0.888916 21.5211C0.888916 30.8487 6.93791 38.7621 15.3261 41.5536C16.3811 41.749 16.7685 41.0956 16.7685 40.538C16.7685 40.0346 16.7488 38.3715 16.7399 36.6075C10.8666 37.8845 9.62728 34.1166 9.62728 34.1166C8.66697 31.6764 7.28329 31.0277 7.28329 31.0277C5.36796 29.7174 7.42767 29.7442 7.42767 29.7442C9.54764 29.8932 10.6639 31.9198 10.6639 31.9198C12.5468 35.1473 15.6026 34.2141 16.8073 33.6749C16.9967 32.3102 17.5439 31.3791 18.1476 30.8519C13.4586 30.3179 8.52921 28.5077 8.52921 20.4186C8.52921 18.1138 9.35392 16.2304 10.7045 14.752C10.4853 14.2202 9.76272 12.0731 10.909 9.16517C10.909 9.16517 12.6817 8.59775 16.7161 11.3292C18.3999 10.8613 20.206 10.6268 22.0001 10.6189C23.7942 10.6268 25.6016 10.8613 27.2888 11.3292C31.3183 8.59775 33.0886 9.16517 33.0886 9.16517C34.2377 12.0731 33.5148 14.2202 33.2956 14.752C34.6491 16.2304 35.4682 18.1136 35.4682 20.4186C35.4682 28.5269 30.5295 30.3125 25.8286 30.835C26.5858 31.4902 27.2605 32.775 27.2605 34.7445C27.2605 37.5691 27.236 39.8426 27.236 40.538C27.236 41.0998 27.616 41.7581 28.6862 41.5508C37.0698 38.7561 43.1111 30.8456 43.1111 21.5211C43.1111 9.86156 33.6592 0.409912 22.0001 0.409912Z" fill="white"/>
<path d="M8.79578 30.4835C8.74942 30.5883 8.58418 30.6197 8.43401 30.5479C8.28085 30.479 8.19476 30.336 8.24443 30.2306C8.28996 30.1227 8.4552 30.0926 8.60802 30.1651C8.76151 30.2338 8.84893 30.3782 8.79578 30.4835V30.4835ZM9.83425 31.41C9.73358 31.5034 9.53672 31.46 9.4031 31.3125C9.26501 31.1653 9.23918 30.9686 9.34134 30.8737C9.44516 30.7805 9.63606 30.8241 9.77448 30.9714C9.91257 31.1203 9.93939 31.3158 9.83408 31.4102L9.83425 31.41ZM10.5467 32.5955C10.4172 32.6854 10.2056 32.6011 10.075 32.4134C9.94568 32.2258 9.94568 32.0006 10.0778 31.9104C10.2089 31.8201 10.4172 31.9013 10.5497 32.0875C10.6788 32.2784 10.6788 32.5036 10.5465 32.5957L10.5467 32.5955ZM11.7514 33.9686C11.6357 34.0961 11.3893 34.062 11.2088 33.8878C11.0244 33.7176 10.9729 33.476 11.089 33.3484C11.206 33.2205 11.4539 33.2565 11.6357 33.4292C11.819 33.599 11.8749 33.8424 11.7516 33.9686H11.7514ZM13.3084 34.4322C13.2576 34.5974 13.0202 34.6726 12.7811 34.6024C12.5423 34.53 12.386 34.3363 12.4342 34.1693C12.4839 34.0029 12.7223 33.9246 12.9632 33.9997C13.2016 34.0717 13.3583 34.264 13.3086 34.4322H13.3084ZM15.0807 34.6287C15.0867 34.8029 14.8839 34.9473 14.6329 34.9504C14.3804 34.9559 14.1762 34.815 14.1736 34.6438C14.1736 34.468 14.3717 34.3249 14.6241 34.3208C14.8751 34.3158 15.0807 34.4557 15.0807 34.6287V34.6287ZM16.8215 34.562C16.8517 34.7319 16.6772 34.9064 16.428 34.9527C16.1829 34.9975 15.9561 34.8926 15.9248 34.7243C15.8943 34.5501 16.0722 34.3757 16.3167 34.3305C16.5664 34.2872 16.7898 34.3893 16.8215 34.562" fill="white"/>
</svg>
