<svg width="86" height="85" viewBox="0 0 86 85" fill="none" xmlns="http://www.w3.org/2000/svg">
<path d="M14.1032 37.4243C11.2989 38.5624 3.87676 43.6858 2.44722 45.2038C0.962627 46.7218 0.522916 44.35 2.06231 40.4128C3.27158 37.2345 6.35091 32.9176 11.5189 29.2176C14.5426 27.0829 21.1955 23.9996 25.2639 22.1968C26.0888 21.8172 36.7549 17.9274 46.2666 15.9825C47.0915 15.7927 45.2771 17.1684 45.002 17.9274C43.5725 21.5326 15.0374 36.9971 15.0374 36.9971L14.1032 37.4243ZM54.2937 80.924C54.7885 83.4856 54.3488 83.6754 51.27 84.0075C48.1909 84.3396 45.9368 83.3433 45.1121 82.6793C44.2872 82.0149 44.1226 80.5446 44.9472 79.2165C45.4423 78.3624 45.937 78.0778 46.2121 77.0342C46.4869 76.0382 46.7069 75.8008 46.9266 75.4215C47.1463 75.0891 47.2016 74.757 47.2564 72.4327C47.3115 70.1085 47.2564 65.7441 47.5315 63.8942C47.8066 61.9968 57.3182 64.748 57.3182 64.748C57.3182 64.748 55.0638 69.5866 54.4592 70.7725C53.8543 71.9586 53.9093 74.2353 53.9093 74.7097C53.9093 75.1841 53.6896 76.1327 53.5244 76.1802C53.3595 76.2275 54.0743 77.4609 53.7441 78.1726C53.5241 78.8368 54.2389 80.5446 54.2937 80.924ZM57.9226 8.39254C57.5925 6.58994 57.9226 3.03181 58.3623 2.46285C59.7371 0.849831 66.9943 0.660256 68.534 2.55764C69.1937 3.41142 69.1386 5.40382 69.0287 6.68473C68.9189 7.96541 68.534 10.7168 68.4789 11.6183C68.4241 12.2825 60.4518 13.3259 58.6924 11.5233C58.1974 11.0491 57.9226 8.39254 57.9226 8.39254ZM74.0869 76.3225C77.4407 78.4099 80.0248 78.7893 81.7291 79.5483C83.4334 80.3076 82.9937 81.778 80.1346 82.2049C77.8254 82.5843 74.1968 81.8253 71.7777 81.8253C69.3586 81.8253 63.9703 82.0626 62.5408 81.2089C60.8915 80.2128 61.606 78.3624 61.606 78.3624C62.046 77.3191 63.1454 74.9943 62.8156 73.097C62.4857 71.1996 62.0457 70.156 61.2211 68.4007C60.3965 66.6456 59.7918 62.3289 60.5617 62.0916C61.3315 61.8543 61.1112 62.0916 62.1011 62.2812C63.0906 62.4708 64.1903 62.7556 66.3346 62.7556C68.4789 62.7556 70.8429 62.4707 71.6678 62.3287C72.4924 62.1864 73.1521 62.0439 72.8771 63.5146C72.6023 64.9851 71.7777 67.7365 71.7226 69.8712C71.6678 72.0059 71.6678 74.4727 71.8327 74.8996C71.9974 75.3264 73.2072 75.8008 74.0869 76.3225Z" fill="#010101"/>
<path d="M62.3213 13.1363C56.2735 17.643 44.5625 18.8762 27.1889 24.6636C22.7354 26.134 10.8597 30.5457 8.00061 35.1472C17.6222 30.3562 21.196 36.9498 21.9656 43.7333C22.68 50.0899 26.364 53.4107 35.8206 53.2207C45.5523 53.0311 48.5212 57.9169 51.2151 63.6571C56.4382 41.6934 64.7954 37.4242 70.1831 33.6767C81.6194 25.6596 67.5443 11.5233 62.3213 13.1363Z" fill="#8AC640"/>
<path d="M62.3214 13.1362C47.8066 17.5004 33.4564 18.5915 16.5776 27.5572C12.5641 29.6919 4.09703 34.5302 2.44751 43.7808C8.60508 37.8983 22.8451 30.4984 40.274 25.8021C49.0709 23.4301 55.5038 21.8648 63.3109 19.2557C62.7613 16.2195 62.7613 15.0336 62.3214 13.1362Z" fill="#8AC640"/>
<path d="M80.8497 39.1321C80.8497 39.1321 79.8051 42.2156 77.7159 43.2119C77.7159 43.2119 76.1765 43.6863 73.0977 42.2158C72.218 41.7889 71.5583 40.3184 71.6131 39.8438C71.6681 38.7052 72.4928 38.1835 72.4928 38.1835C72.4928 38.1835 73.3727 36.9026 74.4171 36.9501C75.462 36.9974 77.2213 37.1397 77.7712 36.7128C78.2657 36.2384 80.9598 37.5666 80.8497 39.1321ZM58.4177 9.29406C58.4177 9.29406 58.198 11.7136 57.8131 13.2313C57.758 13.5162 56.1087 13.6582 54.8989 14.0854C57.2082 19.7777 71.1183 19.7302 72.9327 16.9315C72.0531 16.4099 70.2937 15.6034 69.469 15.3188C68.6441 15.0339 68.6992 15.0814 68.6441 13.7533C68.5894 12.4248 68.4792 9.95827 68.3691 9.29406C68.2592 8.62985 59.7371 8.62985 58.4177 9.29406Z" fill="#010101"/>
<path d="M58.9673 9.29389C58.9673 9.29389 58.9673 10.6696 58.8024 11.9978C58.7476 12.6145 58.6926 12.9939 58.5827 13.4683C58.5276 13.7531 60.4519 14.8912 61.0018 17.4056C63.6409 22.4812 69.7439 19.9671 72.2729 17.5479C71.3932 17.0259 69.9636 16.3144 68.3144 15.7453C67.4895 15.4604 67.8744 14.844 67.8196 13.5158C67.7645 12.1876 67.5445 10.2425 67.4347 9.53098C67.3243 8.81949 60.287 8.62968 58.9673 9.29389Z" fill="#F0EFEF"/>
<path d="M58.4174 9.29357C58.4174 9.29357 58.3623 10.1476 58.1976 11.1437C58.9121 11.7601 59.8469 12.6142 60.5619 13.1361C61.0567 13.5157 62.266 13.4682 63.3659 13.4682C64.3555 13.4682 65.2352 13.563 65.6201 13.3734C66.5 12.9938 67.7644 12.0452 68.4791 11.3335C68.4244 10.4797 68.3693 9.67318 68.3145 9.29357C68.2589 8.62936 59.7368 8.62936 58.4174 9.29357Z" fill="#010101"/>
<path d="M63.4208 12.8989C62.7608 12.8989 61.991 12.8516 61.3864 12.7566C61.1113 12.7093 60.8365 12.567 60.6165 12.472C60.2316 12.2347 59.8467 11.9503 59.4073 11.6655C58.5273 11.0963 58.4725 10.7642 58.4725 10.6221C58.8574 7.63343 58.3624 5.11935 58.3624 5.11935C58.3624 5.11935 57.9775 3.83844 60.0667 3.50634C62.1559 3.17423 63.4205 3.12695 63.4205 3.12695C63.4205 3.12695 64.7402 3.12695 66.7744 3.50634C68.8636 3.83844 68.4787 5.11935 68.4787 5.11935C68.4787 5.11935 67.9839 7.63343 68.3688 10.6221C68.3688 10.7642 68.314 11.0963 67.4341 11.6655C66.6643 12.1399 66.0596 12.6616 65.455 12.7566C64.8501 12.8516 64.0802 12.8989 63.4208 12.8989Z" fill="#010101"/>
<path d="M63.4208 1.89355C59.7922 1.89355 59.0771 2.74734 58.0325 3.69615C57.8128 3.93323 57.9774 5.35644 58.3626 8.39243H58.8574C58.8574 8.39243 58.5273 7.53841 58.5823 6.54233C58.6374 5.54625 58.8574 5.59376 58.6922 5.35644C58.4725 5.07161 58.0325 4.59721 59.0223 4.12304C60.0119 3.64864 61.5513 4.50242 63.4208 4.54993C65.29 4.50242 66.8845 3.64864 67.874 4.12304C68.8636 4.59721 68.4239 5.07161 68.2042 5.35644C67.9842 5.64104 68.259 5.54601 68.314 6.54233C68.3688 7.53841 68.039 8.39243 68.039 8.39243H68.5337C68.8636 5.35644 69.0836 4.02825 68.9187 3.79093C67.9839 2.74734 67.0494 1.94083 63.4208 1.89355ZM80.8494 39.274C80.8494 39.274 79.8048 42.1677 77.7706 43.1638C77.3307 42.9742 77.3857 42.6896 77.0008 42.2625C76.8907 42.1205 76.5058 42.0252 76.3411 41.8831C76.1762 41.7408 76.2313 41.5035 75.9562 41.314C75.7362 41.1241 75.5713 41.2664 75.3513 41.1241C75.1316 40.9346 75.0762 40.6972 74.9116 40.5552C74.8015 40.4602 74.3617 40.4129 74.2519 40.3179C73.9768 40.0805 71.558 39.6537 71.6679 39.1793C71.8876 38.4675 72.3276 37.9459 72.3276 37.9459C72.3276 37.9459 73.3722 36.6177 74.4165 36.6649C75.4611 36.7125 76.451 36.9023 77.0008 36.4754C77.6057 36.0007 81.0146 37.756 80.8494 39.274Z" fill="#010101"/>
<path d="M73.702 18.3068C73.702 18.3068 77.1657 17.5951 79.53 19.5402C81.8943 21.5326 81.7291 23.9991 81.0146 25.5171C81.6192 26.1338 82.7189 27.8414 81.8943 29.8813C85.5229 32.5377 83.9285 36.6175 80.6847 39.3214C80.6847 39.3214 79.9149 36.8546 76.8361 36.7123C76.946 35.7637 73.9771 35.0045 75.3515 32.5377C73.2623 32.1108 73.3174 30.8774 72.9875 29.3596C72.7124 27.8414 73.702 18.3068 73.702 18.3068Z" fill="#010101"/>
<path d="M72.4376 19.6353C72.4376 19.6353 76.4512 17.8803 78.8155 19.8727C81.1795 21.8651 80.5195 24.047 79.805 25.565C80.4097 26.1815 81.8392 27.937 80.9595 30.024C80.7946 30.4984 79.585 30.4984 78.7051 31.7318C80.9042 30.6405 82.2789 30.9253 82.7737 32.3008C83.5435 34.4355 81.8389 36.997 80.3546 38.4203C80.3546 38.3727 80.2995 38.3252 80.2995 38.278C80.0798 38.9897 79.8048 40.3651 78.1555 41.8831C77.3306 42.6421 76.6709 42.5474 75.7361 42.3575C74.6367 42.1202 74.2518 41.6931 72.7124 40.9818C71.8327 40.555 72.3275 40.033 72.3275 39.6062C72.3275 39.5114 72.4374 39.3688 72.6026 39.1793C72.7124 38.9419 73.0423 38.5628 73.537 38.1357C73.537 38.1357 74.2518 37.2819 75.2967 37.3292C76.3413 37.3767 77.4407 37.1871 77.7158 36.9498C77.7158 35.2895 75.5167 35.242 76.2862 32.3958C76.3413 32.2535 76.6164 32.0162 77.4958 31.9214C76.1761 31.6841 75.5715 31.6366 74.6367 30.8778C73.977 30.3561 73.4822 29.6919 73.3171 28.8381C72.9875 27.3676 72.4376 19.6353 72.4376 19.6353Z" fill="#F0EFEF"/>
<path d="M60.8365 16.647C60.5067 16.2674 58.8023 14.37 55.5584 13.611C54.6236 13.3737 54.019 14.0379 53.0845 14.5123C52.8094 14.37 51.5999 13.8956 50.9402 14.2274C50.2805 14.5593 49.8408 14.8917 49.1808 15.1287C48.8507 14.9864 47.9712 14.9864 47.2565 15.2235C46.5417 15.4133 45.442 15.8402 44.3974 17.0736C43.7377 19.1135 56.0531 17.5953 56.0531 17.5953L60.8365 16.647Z" fill="#010101"/>
<path d="M60.9469 16.6467C59.1873 16.1247 59.4623 14.3697 55.5587 14.0851C54.7888 14.0376 54.294 14.5592 53.7442 14.8913C54.0193 15.1287 54.294 15.508 54.459 15.8874C53.9642 15.4133 53.0845 14.7963 52.2045 14.654C51.3799 14.512 50.8301 15.0336 49.9504 15.4133C50.115 15.5553 50.2802 15.7926 50.5 16.0775C49.7301 15.6506 49.1806 15.5083 48.1359 15.8401C47.4212 16.0297 46.0467 16.5516 45.0021 17.8325C44.3424 19.8725 56.1082 17.5952 56.1082 17.5952L60.9469 16.6467Z" fill="#8AC640"/>
<path d="M71.283 17.4058C71.283 17.4058 71.283 16.8839 71.2279 16.4098C71.2279 16.315 70.7882 16.0777 70.7882 15.9829L70.6783 15.8879C70.6783 15.8879 71.558 15.461 72.2177 15.6983C72.9322 15.8879 73.3172 16.6944 73.3172 16.6944C74.5818 16.315 74.6916 16.7419 75.2965 17.3111C76.6162 17.0737 76.7809 17.5006 77.6057 18.5445C77.6057 18.5445 76.6162 18.4022 74.6919 18.6865C72.8224 18.9236 71.283 17.3583 71.283 17.4058Z" fill="#010101"/>
<path d="M71.0632 17.1684C71.0632 17.1684 71.3931 16.931 71.283 16.8835C71.8876 16.5989 72.7125 16.2671 73.0974 17.1684C74.362 16.7887 74.5269 17.3106 75.1316 17.8801C76.671 17.2634 76.7808 18.0221 76.891 18.3542C76.3962 18.3542 75.6817 18.4018 74.6919 18.4965C72.8226 18.7339 71.0082 17.1208 71.0632 17.1684Z" fill="#8AC640"/>
<path d="M52.3697 15.9824C52.3697 15.9824 55.5035 16.931 58.1426 16.7887C60.7817 16.5991 65.29 16.4093 67.7091 17.6427C67.7091 17.6427 70.1832 16.8835 72.4925 17.4054C74.8019 17.9271 79.0352 21.3427 77.7709 24.9479C77.6607 25.1852 76.946 25.5646 76.1213 25.8019C76.1213 25.8019 76.5613 27.4147 75.7915 28.7429C75.0217 30.0238 73.3173 32.4906 73.2623 35.9059C73.2075 36.4751 73.0976 37.661 72.9875 38.2302C68.6989 38.0882 62.1013 36.7122 55.6136 36.8072C55.6684 36.1908 55.7235 35.8112 55.7786 35.1945H55.9432C55.6134 33.629 55.5035 32.8224 55.1734 31.6366C53.0842 30.4982 50.8848 29.17 49.0158 26.6557C47.2014 24.1414 52.3697 15.9824 52.3697 15.9824ZM73.5921 41.5986C73.5921 41.5986 77.001 52.1297 72.9875 56.5414C72.9875 56.5414 73.5921 58.5811 72.2177 60.7633C71.9977 61.7119 71.7226 62.5659 71.558 63.5145C70.8432 67.4518 69.6334 69.1121 69.3035 75.4211L66.0045 75.3739C66.0045 75.3739 65.6196 70.8199 64.4651 68.4006C63.8057 67.0251 61.2211 65.1748 61.3315 63.3249C61.4414 61.9017 61.7712 60.7158 64.5755 58.8182C64.7952 56.067 61.6063 53.4577 62.1013 43.2113L73.5921 41.5986Z" fill="#010101"/>
<path d="M72.6029 41.1714C73.4826 46.01 75.5167 53.1731 71.8331 56.6833C72.0504 57.5733 72.069 58.491 71.8879 59.3872C71.778 59.9563 71.558 60.573 71.2832 61.237C70.7334 62.3756 70.5134 64.0359 70.3485 65.032C69.6337 68.9693 69.6337 69.1593 69.3038 75.4684L66.0048 75.4209C66.0048 75.4209 65.6199 70.8669 64.4654 68.4479C63.806 67.0722 62.4312 65.8863 62.3214 64.0362C62.2115 62.6132 63.366 59.767 66.1152 59.8618C65.9503 54.1219 62.8712 55.2603 62.0466 43.3061L72.6029 41.1714ZM52.37 15.9824C52.37 15.9824 53.5795 16.3145 54.8989 16.4093C56.2186 16.5041 57.6481 16.4093 58.9125 16.3618C61.5515 16.1722 65.2903 15.9349 67.7644 17.1683C67.7644 17.1683 69.1389 16.7887 70.6235 16.8835C71.2832 16.931 71.9432 17.4054 72.7127 17.5952C75.1318 18.1169 77.4411 21.5798 76.3962 24.7108C76.2863 24.9481 75.5165 24.7108 74.6368 24.9481C74.8014 25.6123 74.9118 27.1303 74.0319 28.7431C73.0974 30.3561 71.8878 32.4433 72.1076 36.4281C66.3346 36.1908 63.7506 35.8589 58.0325 35.6216C57.5377 33.8663 57.2076 32.1112 57.1528 31.2099C57.9226 30.8778 58.3621 30.5934 58.9673 30.024C57.318 30.2613 56.658 30.1663 55.6682 29.6919C54.6787 29.2175 52.9193 27.6995 52.0396 26.7034C51.9297 26.6084 51.3251 28.1737 49.9506 28.2214C49.4556 27.6047 51.5448 25.8494 51.1599 25.1854C49.7857 22.7659 52.37 15.9824 52.37 15.9824Z" fill="#F0EFEF"/>
<path d="M73.0422 37.2343C73.0422 37.2343 73.1521 38.9421 73.1521 39.369C73.1521 39.8434 73.5921 41.2664 73.6469 41.9306C73.0422 42.8319 70.4032 44.8718 65.6198 45.6308C60.8915 46.4846 54.6238 40.0807 54.6238 40.0807C54.7887 39.464 55.3385 37.6612 55.7235 36.7126C55.7785 36.6178 55.8884 36.3805 55.8884 36.2857C56.3834 35.669 73.0422 37.2343 73.0422 37.2343Z" fill="#010101"/>
<path d="M71.8329 37.377C71.8329 38.5629 72.0526 39.417 72.2178 40.176C72.4926 41.5517 72.9323 42.4529 72.9323 43.3542C72.9323 46.1054 68.7538 45.631 65.2348 45.726C60.5065 46.58 56.4929 40.176 56.4929 40.176C56.8228 39.0848 57.0428 37.8517 57.5375 36.8079C57.5923 36.2387 57.7025 35.5272 57.7573 35.1951C64.4649 35.1951 69.1933 35.5272 71.9425 35.764C72.0526 36.2859 71.9427 37.1872 71.8329 37.377Z" fill="#F0EFEF"/>
<path d="M66.5547 43.4962C66.5547 43.4962 63.6409 37.8986 54.8987 39.5591C52.8098 44.6348 50.0055 50.4697 51.8199 56.7787C50.0055 58.9134 47.9163 60.0996 47.9163 64.0366C47.9163 67.9739 48.1363 68.6381 48.1363 68.6381L54.5689 68.9229C54.5689 68.9229 56.6581 66.5987 57.4827 64.0844C57.7027 63.3726 57.9227 62.092 57.7578 60.6215C57.9775 60.3369 58.9123 59.6729 59.0224 58.392C59.0224 58.392 62.1563 56.969 63.9707 53.5061C65.6753 50.3746 65.2353 47.6708 66.5547 43.4962Z" fill="#010101"/>
<path d="M66.5544 43.4959C66.3898 42.9743 64.1904 37.8511 56.0532 39.3689C51.2701 50.3744 53.0295 54.9284 53.744 56.9206C50.5 60.4783 49.0157 61.2373 49.6756 68.4479H53.9642C55.9433 65.744 56.3833 64.7477 56.4932 61.19C56.4932 61.0477 55.8885 61.4746 55.4486 61.949C55.7787 60.4785 56.7132 60.1939 57.4279 59.2926C57.7578 58.913 58.0326 58.3438 58.0326 57.5848C61.8812 55.3553 63.3107 52.5564 64.1353 49.6627C64.7953 47.6706 65.5649 44.3972 66.5544 43.4959Z" fill="#F0EFEF"/>
<path d="M52.9744 35.8589C52.9744 35.8589 54.459 35.9062 55.7787 36.2858C57.0433 36.6652 57.0433 36.9022 57.5381 37.3769C58.0329 37.8515 59.2424 38.5628 59.0227 39.2743C58.9126 39.6539 58.6378 39.7487 58.2529 40.0808C58.0879 40.2231 56.8781 41.3615 56.6033 41.5037C56.4384 41.5985 56.2184 41.7411 56.0535 41.8359L55.2289 42.3103C54.679 42.5476 54.2941 42.6899 53.6895 42.6424C53.6895 42.6424 52.315 42.5949 51.435 41.7886C51.435 41.7886 51.3252 41.409 51.5452 41.2194C51.5452 41.2194 50.3904 40.3654 50.0606 39.7962C49.7305 39.2272 49.7305 38.4207 49.9507 37.9938C50.0606 37.5665 52.2046 36.3806 52.9744 35.8589ZM54.3492 82.0152L54.1843 83.2014C54.1843 83.2014 53.6895 83.7231 50.0058 83.6758C46.267 83.6283 45.2775 82.6322 44.9476 82.1103L44.7279 80.8769C44.7279 80.8769 45.4427 79.9756 45.6076 79.9756C46.8171 80.0704 50.9408 81.4936 53.7999 81.873C54.0741 81.873 54.1289 81.9677 54.3492 82.0152ZM62.3212 79.596C62.3212 80.1176 62.2661 80.1176 62.2661 80.6396C62.9258 81.0664 64.5756 81.3038 67.7092 81.256C72.2726 81.1612 76.5061 82.4421 81.6742 81.6829L81.7292 80.8291L81.2344 80.7818L62.9258 79.5009L62.3212 79.596Z" fill="#010101"/>
<path d="M66.3349 81.2562H67.7094C70.6786 81.1614 73.4826 81.7306 76.5063 81.8729C78.1008 81.8254 80.0802 81.4933 79.9152 80.4972L64.3008 79.3586C63.366 80.2599 64.0805 81.0189 66.3349 81.2562ZM48.4112 61.2852C48.906 61.5697 52.2599 63.2776 57.7029 63.0402C57.5928 63.9415 57.6479 65.6968 55.2288 68.7801C54.0192 70.2981 52.9744 72.9547 52.7546 76.3228C52.8097 77.0818 53.3045 77.7458 52.6448 78.7421C52.8645 79.3586 53.7442 80.592 54.1842 81.351C54.6239 82.1102 54.8439 82.964 51.9297 83.0115C48.9608 83.0588 44.1774 82.7742 44.8374 80.782C45.1675 79.7384 46.102 78.6473 46.2121 78.2202C46.322 77.7933 46.322 76.5126 47.2565 75.6586C48.0814 73.2868 47.8063 71.0098 47.6417 68.8751C47.3666 66.6454 47.3116 63.0877 48.4112 61.2852ZM53.5245 22.6238C57.4282 18.117 54.1291 14.5121 47.8617 15.603C45.3325 16.0299 42.8035 17.5481 42.6383 20.2993C41.8137 20.394 39.9444 20.4888 39.0097 23.43C38.2952 25.707 37.9103 26.1339 36.6454 27.2723C35.8208 28.0788 36.7005 29.7391 37.3051 30.9252C39.3395 35.0048 45.6072 35.3842 49.8408 38.4677C51.2703 38.1356 52.7546 36.7601 53.1946 35.8588C49.6208 32.2059 50.3903 30.7829 48.9608 28.8855C50.5005 28.4109 54.0192 26.561 53.5245 22.6238Z" fill="#010101"/>
<path d="M52.7546 22.3392C52.9744 22.0543 53.3593 21.4379 53.5245 21.2006C53.5795 21.153 54.1842 22.0543 54.2392 22.0071C55.7236 19.9196 56.1085 16.8837 54.4039 16.5991C54.019 16.5515 53.3045 16.4095 52.6996 16.2194C51.6002 15.8873 50.6106 15.8873 48.851 16.1722C46.4319 16.5515 44.0128 18.0695 44.0128 20.2517C44.0128 20.394 45.7168 20.8209 46.2119 22.5763C45.387 21.5799 43.9575 20.4888 42.2531 21.4376C40.4387 22.4337 41.3735 24.7107 38.9544 27.0825C38.1295 27.889 38.2396 28.8378 39.119 30.7352C40.5486 33.7239 47.3113 35.3367 50.995 38.1829C51.8747 37.8508 52.4793 37.0918 52.9193 36.5226C50.4452 34.2931 49.4553 32.2057 48.7408 30.6877C47.8611 28.9326 46.8713 27.9365 44.947 26.6079C45.9368 26.94 46.7067 27.2721 47.1461 27.5567C47.6409 27.8413 48.3556 27.8888 49.0156 27.699C51.3802 26.9879 52.6448 24.1415 52.7546 22.3392Z" fill="#F0EFEF"/>
<path d="M76.6712 23.0981C76.5063 24.9006 74.9669 23.9993 74.1423 23.6672C72.4928 23.0505 70.8432 22.6236 68.9189 22.6236C66.9946 22.6236 64.5205 22.7659 62.3764 23.2403C59.4075 23.9518 58.5275 23.9046 57.2081 23.3351C55.8887 22.7184 53.5798 21.2004 53.5798 21.2004C53.5798 21.2004 53.5247 21.6748 54.0746 22.2915C54.7891 23.0505 56.3838 23.9993 58.5278 24.6158C59.5724 24.9006 60.3973 24.7106 61.3321 24.521C66.2253 23.4774 71.3933 23.2876 75.7367 25.5646C75.9567 25.6594 76.7266 25.3748 77.0564 24.9479C77.4958 24.3315 76.6712 23.0981 76.6712 23.0981Z" fill="#010101"/>
<path d="M51.655 41.1716C52.0947 41.4089 52.6446 41.5512 53.2492 41.9781C53.2492 41.9781 52.7544 41.9781 52.5347 41.7886C52.2597 41.6463 51.7098 41.2194 51.655 41.1716Z" fill="#0A1825"/>
<path d="M67.5442 3.5538C67.3793 3.12691 66.1695 2.36768 63.3657 2.36768C60.3417 2.36768 59.4621 3.17418 59.4073 3.60108C59.4073 3.74337 59.1873 5.2616 59.1322 5.87807C59.1322 5.87807 59.1322 6.63707 59.187 7.77545C59.2421 8.53445 59.4621 8.96134 59.5719 9.95766C59.6818 11.001 60.0119 11.6652 60.6165 12.5192C60.8916 12.6613 61.1113 12.8038 61.3864 12.8514C62.486 13.0409 64.4104 13.0884 65.455 12.8514C66.0596 12.7091 66.8294 11.8078 66.9944 11.0013C67.2141 10.0052 67.4341 9.29345 67.4891 8.67698C67.599 8.06051 67.6541 6.68458 67.7089 6.30496C67.8741 5.2616 67.599 3.64859 67.5442 3.5538Z" fill="#F0EFEF"/>
<path d="M61.7712 62.1863C61.7712 62.1863 64.6853 63.2774 71.8878 62.3286C71.8878 62.3286 69.8536 71.152 70.7884 75.5634C70.7884 75.5634 71.7229 76.702 78.6505 78.884C78.6505 78.884 81.7293 79.5482 81.6195 80.8766C81.6195 80.8766 81.7293 81.1612 77.9908 81.0662C74.2523 80.9712 70.7333 80.402 68.2592 80.402C65.785 80.402 63.1459 80.4968 62.7062 79.8803C62.2114 79.3111 62.8161 77.8404 63.5308 76.9864C64.3009 76.0853 64.0807 75.4209 64.0259 73.8083C63.8604 69.5865 60.1217 65.2223 61.7712 62.1863Z" fill="#010101"/>
<path d="M61.1666 62.9929C60.7817 63.4673 61.2214 65.2697 61.7712 67.025C62.3211 68.7801 63.5309 69.8239 63.8057 72.7174C64.0804 75.5635 64.1355 75.9432 63.2007 77.6032C62.266 79.2633 61.9912 80.7815 65.2349 80.829C68.4786 80.8765 70.2383 80.7815 73.5371 81.2086C76.8361 81.6355 77.9906 81.7778 79.805 81.5408C81.6195 81.3037 82.0041 80.7815 81.2346 80.3074C80.4647 79.8329 77.2758 79.3113 75.9013 78.3622C74.5817 77.5084 70.8432 76.0852 70.7884 75.7058C70.6235 74.4249 70.5684 69.7762 70.8432 68.2582C71.1182 66.7399 71.5029 64.558 71.613 63.9888C71.7231 63.4196 72.2727 62.8502 71.338 63.04C70.4035 63.2295 66.8847 63.6567 64.2456 63.5144C61.6066 63.3723 61.3318 62.8504 61.1666 62.9929Z" fill="#8AC640"/>
<path opacity="0.3" d="M63.0359 77.6508C63.9704 78.0302 65.3451 78.315 66.3897 78.315C66.3897 78.315 66.0046 79.8805 66.6095 80.8291C67.2141 81.7779 62.211 81.2087 62.211 81.2087L61.9913 77.8406L63.0359 77.6508ZM77.6057 81.7304C78.4854 81.4931 79.0903 80.6393 78.3756 79.833C77.6057 79.0265 76.9461 78.8842 77.9356 78.8369C78.9254 78.7894 82.554 80.6868 82.554 80.6868L80.6845 82.1573L77.6057 81.7304ZM61.0015 64.8426C62.2661 65.2222 64.1904 65.317 65.8399 65.2695C67.4892 65.2222 69.9633 65.0322 71.558 64.558C73.1522 64.0836 72.4925 65.0797 72.4925 65.0797L71.6128 65.7914C71.6128 65.7914 69.5236 66.5029 66.115 66.4556C62.1014 66.4081 60.8916 66.0287 60.8916 66.0287L61.0015 64.8426ZM61.1113 67.2146C62.3762 67.5943 64.3002 67.689 65.9498 67.6415C67.599 67.5943 69.7984 67.5943 71.3928 67.0723C72.0525 66.8828 71.6679 67.689 71.6679 67.689L71.3928 68.1159C71.3928 68.1159 69.2485 68.7801 65.8947 68.7324C61.8812 68.6851 61.1664 68.4003 61.1664 68.4003L61.1113 67.2146Z" fill="#010101"/>
<path d="M57.4827 33.9614C57.4827 34.2935 61.7713 36.1434 64.1353 36.523C66.4996 36.9024 71.4479 36.523 72.2174 36.3807L72.1073 37.0449C72.1073 37.0449 66.2245 37.8039 61.7162 36.7603C57.2076 35.7167 57.7027 35.4794 57.7027 35.4794L57.4827 33.9614Z" fill="#010101"/>
<path d="M48.301 74.425C48.9607 74.7098 51.3249 75.2315 52.8643 74.9469C53.0841 74.8994 52.8643 71.6736 53.4692 70.2031C54.3489 68.1632 55.7785 66.5029 56.4379 62.898C54.1287 62.7082 51.4899 62.1863 50.1151 61.8066C48.356 66.4557 48.9609 70.4402 48.301 74.425ZM51.9849 77.4137C52.3698 77.5085 52.6446 77.8879 52.7547 77.6511C52.9745 77.2239 52.3698 76.4176 52.3148 75.8485V75.801C51.82 75.4216 48.4661 75.3741 48.6861 75.5636C48.3012 76.1803 47.6966 76.0855 47.4769 77.3189C47.367 77.9354 48.2467 77.4137 49.0711 77.3662C47.5867 78.22 45.8824 79.3113 45.6074 80.2599C45.2775 81.5881 45.8273 81.9677 47.4769 82.6794C48.9064 82.964 50.6107 83.0115 51.9301 82.964C53.4147 82.7267 53.6898 82.1103 53.2498 81.2562C52.5896 79.9753 52.1498 78.315 51.9849 77.4137Z" fill="#F0EFEF"/>
<path d="M52.5894 15.793C54.4038 16.6943 56.933 16.4572 57.8675 16.4097C58.0875 16.4097 60.2869 16.0776 60.3967 16.1248C60.6164 16.1724 60.6164 16.3146 60.6164 16.3146C60.6164 16.3146 59.7918 16.694 57.9226 16.7888C56.1632 16.8836 54.0739 16.7888 52.9195 16.3146C51.5447 15.793 52.5894 15.793 52.5894 15.793ZM71.2829 16.6943C71.6127 16.8838 73.757 17.5956 74.6918 18.4493C75.5164 19.2086 75.0767 19.1611 74.9115 18.9713C74.6918 18.7339 72.9872 17.7379 72.3275 17.5008C71.6678 17.2637 70.8429 16.8366 70.8429 16.7418C70.8429 16.647 71.2829 16.6943 71.2829 16.6943Z" fill="#010101"/>
<path d="M52.3145 36.3803C53.9089 36.2855 55.5585 36.6176 56.6031 37.5662C57.1529 38.0406 58.0326 38.5623 57.9227 39.0367C57.9227 39.179 57.5926 39.5586 57.3181 39.8432C57.1532 40.0327 56.6584 40.4596 56.4932 40.6022C56.2735 40.7445 55.5037 41.2664 55.3387 41.3612C55.1738 41.4562 54.9538 41.6935 54.7889 41.7408C54.2393 41.9781 53.6344 41.7883 53.0846 41.5512C52.535 41.3139 53.1947 41.2664 52.5898 40.887C51.1055 39.9857 50.2806 39.3688 50.8855 37.6137C50.9403 37.2816 51.5449 36.902 52.3145 36.3803Z" fill="#F0EFEF"/>
<path opacity="0.4" d="M38.2949 25.5176C33.3466 27.2254 20.7558 32.6334 17.1823 34.2937C20.1512 35.9065 21.5256 39.7963 21.9656 43.7335C22.0204 44.1132 22.0755 44.4453 22.1306 44.8246C22.1853 45.1568 22.2404 45.3938 22.2952 45.5364C22.2952 45.5839 22.2952 45.6787 22.3503 45.7259C25.5943 38.0887 37.1949 30.0243 37.6349 29.4076C37.8546 29.123 37.3598 27.8896 38.1297 26.7039C39.1195 25.1855 41.0441 24.5213 38.2949 25.5176ZM50.0607 61.3328C52.5896 56.9686 52.6447 52.794 52.5896 47.9079C52.5896 45.868 54.294 42.9743 53.4145 43.7808C50.1155 46.9589 41.8136 52.9363 35.8207 53.2682C44.2327 53.0311 47.5315 56.6838 50.0607 61.3328Z" fill="#010101"/>
<path d="M12.3438 38.3253C15.4776 36.3804 31.697 28.9329 35.6007 27.8891C39.5041 26.798 38.2945 25.5171 38.2945 25.5171C38.2945 25.5171 22.4601 31.3993 13.0035 36.4752" fill="#010101"/>
<path opacity="0.4" d="M58.5273 24.6161C57.2627 24.1892 56.2732 25.4702 56.603 26.7036C56.9331 27.937 59.9021 29.3124 59.7369 33.8191C59.627 37.5193 58.6923 39.0371 58.6923 39.0371L56.603 36.7603C56.603 36.7603 56.2732 31.6369 55.5584 30.8779C54.8439 30.1189 52.5895 28.7432 51.7098 28.0318C50.8301 27.32 52.6993 26.3715 52.5895 25.043C52.4796 23.7624 53.5242 21.2008 53.5242 21.2008L58.5273 24.6161ZM66.1698 44.8243C66.0599 48.3819 66.9947 53.6476 67.3793 56.162C67.7642 58.676 68.259 58.8658 67.3793 60.0045C66.4996 61.0956 65.3452 62.8982 65.3452 62.8982L61.5513 62.6133C61.5513 62.6133 64.5753 59.2927 64.74 58.676C64.9049 58.0596 63.2006 53.3633 63.2006 53.3633L66.1698 44.8243ZM58.8575 11.6184C59.6273 13.0886 60.5618 13.7528 62.0461 14.18C62.9258 14.4646 66.3895 14.8442 67.7642 13.5158C68.3689 12.8991 67.984 11.2388 67.984 11.2388L64.8501 13.4207L60.6166 12.7568L60.1218 11.6657L58.8575 11.6184Z" fill="#010101"/>
<path d="M59.1872 14.8914C60.6167 15.6979 64.1905 16.4569 65.1801 16.5992C66.1696 16.7887 67.7641 15.6979 68.5339 15.4133C69.3588 15.0812 70.7883 14.8914 72.4376 16.1723C72.6025 16.3146 72.0527 16.9313 72.0527 16.9313C71.9976 16.8838 71.6678 16.8838 71.2278 16.6939C70.7881 16.5044 70.4032 16.3618 69.7434 16.4094C66.9942 16.6939 66.5545 17.5005 64.1354 17.0258C61.7164 16.5512 61.1115 16.172 58.7474 16.2668" fill="#8AC640"/>
<path d="M59.1872 14.8914C60.6167 15.6979 64.1905 16.4569 65.1801 16.5992C66.1696 16.7887 67.7641 15.6979 68.5339 15.4133C69.3588 15.0812 70.7883 14.8914 72.4376 16.1723C72.6025 16.3146 72.0527 16.9313 72.0527 16.9313C71.9976 16.8838 71.6678 16.8838 71.2278 16.6939C70.7881 16.5044 70.4032 16.3618 69.7434 16.4094C66.9942 16.6939 66.5545 17.5005 64.1354 17.0258C61.7164 16.5512 61.1115 16.172 58.7474 16.2668" stroke="#010101" stroke-width="10.0678" stroke-miterlimit="10" stroke-linejoin="round"/>
<path d="M58.6922 15.0337C60.5067 15.6979 64.0254 16.4094 65.015 16.5992C66.0045 16.789 67.599 15.935 68.3688 15.5081C69.7436 14.7491 71.5027 15.3658 72.3276 16.1723C72.8771 16.694 73.0974 17.0261 73.0974 17.1684C73.0974 17.358 72.4377 17.1684 72.4377 17.1684C72.0528 17.0261 71.6128 16.9788 71.2832 16.7888C70.8432 16.5992 70.4033 16.3146 69.7438 16.3619C66.9946 16.6467 66.4448 17.453 64.0808 16.9786C61.7167 16.5042 61.1118 16.0773 58.5829 16.2193" fill="#8AC640"/>
<path d="M50.1705 59.34C50.0606 59.2452 50.2804 59.1504 50.1705 59.1504C49.456 59.1504 48.4662 58.676 47.9161 58.0118C45.5521 55.0708 42.0881 53.1259 35.8204 53.2682C26.4185 53.4578 22.6798 50.1374 21.9653 43.7808C21.5804 40.318 20.4807 36.9499 18.2265 35.0522L16.9069 35.764C19.4358 37.6613 20.2607 40.7448 20.8105 44.9667C21.6902 51.3233 27.6281 54.2645 34.5558 54.3593C41.7582 54.4541 44.3422 55.735 47.0361 58.866C47.9158 59.8621 48.9056 60.1942 49.6752 60.3365L50.1705 59.34Z" fill="#010101"/>
<path opacity="0.4" d="M75.6818 28.8381C75.8467 29.5496 76.2864 30.9253 77.1661 31.5893C77.5513 31.9214 77.6061 32.0162 77.2762 32.0162C76.9461 32.0162 74.527 31.9214 74.527 31.9214L73.8673 30.9253L75.6818 28.8381Z" fill="#010101"/>
</svg>
