<svg width="194" height="136" viewBox="0 0 194 136" fill="none" xmlns="http://www.w3.org/2000/svg">
<path d="M119.788 94.6395C125.69 104.136 133.37 111.117 146.952 111.117C158.362 111.117 165.651 105.497 165.651 97.7332C165.651 88.429 158.162 85.1336 145.603 79.7207L138.719 76.8102C118.848 68.4685 105.647 58.0185 105.647 35.9268C105.647 15.5767 121.383 0.0849609 145.975 0.0849609C163.483 0.0849609 176.07 6.08915 185.14 21.81L163.697 35.3768C158.976 27.0351 153.883 23.7488 145.975 23.7488C137.91 23.7488 132.798 28.7905 132.798 35.3768C132.798 43.5168 137.914 46.8122 149.729 51.8539L156.613 54.7597C180.009 64.646 193.219 74.7248 193.219 97.3849C193.219 121.814 173.744 135.198 147.589 135.198C122.016 135.198 105.494 123.189 97.4097 107.45L119.788 94.6395ZM22.5127 96.9907C26.8385 104.553 30.7736 110.947 40.2346 110.947C49.2816 110.947 54.9888 107.459 54.9888 93.897V1.63412H82.5252V94.2636C82.5252 122.36 65.808 135.147 41.4067 135.147C19.359 135.147 6.59091 123.904 0.0975342 110.363L22.5127 96.9907Z" fill="black"/>
</svg>
