<svg width="29" height="50" viewBox="0 0 29 50" fill="none" xmlns="http://www.w3.org/2000/svg">
<path d="M14.1582 0.696777L15.8377 3.15033C16.2153 3.6031 16.6244 4.00387 17.1062 4.3771C18.5189 5.46211 19.8356 6.62014 21.0475 7.84327C23.8933 10.7496 25.8128 13.9771 27.1836 17.4678C28.0056 19.6001 28.4521 21.7875 28.4855 23.9994C28.6232 30.612 25.7085 36.29 19.8321 41.009C18.8762 41.7573 17.8435 42.4439 16.7444 43.0618C16.1622 43.0618 15.8869 42.7145 15.6469 42.3949C15.21 41.802 14.9192 41.151 14.7895 40.4751C14.583 39.6751 14.4473 38.8751 14.5141 38.0491V37.6759C14.4669 37.5964 13.9536 0.884923 14.1582 0.696777Z" fill="#599636"/>
<path d="M14.1582 0.615613C14.0893 0.508538 14.0205 0.589609 13.9517 0.641617C13.9851 1.17699 13.7452 1.65424 13.3695 2.11008C12.9565 2.56285 12.4098 2.91008 11.8611 3.28331C8.81271 5.3361 6.41334 7.81565 4.49189 10.5889C1.9352 14.3212 0.617515 18.3212 0.243844 22.5324C0.0727421 24.0513 0.861384 29.4112 1.47696 30.9576C3.15651 35.0632 6.17341 38.5034 10.0812 41.4892C11.041 42.2082 12.0676 42.8751 13.1296 43.516C13.4384 43.516 13.4718 43.3019 13.5426 43.1428C13.678 42.8024 13.7812 42.4547 13.8514 42.1026L14.5397 38.1041L14.1582 0.615613Z" fill="#6CAC48"/>
<path d="M15.8378 44.6862C15.9066 44.0744 16.2842 43.5665 16.6953 43.0602C16.2822 42.9271 15.9754 42.6625 15.7355 42.3673C15.5286 42.0878 15.3573 41.7932 15.2242 41.4878C14.7443 40.3681 14.642 39.1933 14.5044 38.0491V37.3562C14.3333 37.4633 14.2979 38.3688 14.2979 38.5034C14.1978 39.7127 13.9914 40.9153 13.6803 42.1027C13.578 42.583 13.5092 43.0617 13.1296 43.4885C13.1296 43.5421 13.1296 43.5956 13.1631 43.6751C13.7806 45.0885 13.9497 46.5279 14.054 47.9948V48.5302C14.054 49.1696 14.0205 49.035 14.703 49.2491C14.9783 49.3287 15.2851 49.3562 15.5605 49.5153C15.767 49.5153 15.8004 49.3822 15.8004 49.2751L15.6981 48.3956V45.9421C15.6647 45.5138 15.767 45.0885 15.8358 44.6878L15.8378 44.6862Z" fill="#C2BFBF"/>
</svg>
