<svg width="132" height="63" viewBox="0 0 132 63" fill="none" xmlns="http://www.w3.org/2000/svg">
<path d="M31.2816 16.7529H56.0407V18.2851H33.5512V29.8168H54.6996V31.3489H33.5512V44.0096H56.2986V45.5418H31.2816V16.7529ZM58.2587 16.7529H60.8893L72.5467 29.4135L84.462 16.7529L100.669 0.670898L74.0426 30.7441L87.7632 45.5418H85.0294L72.5467 32.0747L60.0124 45.5418H57.3302L71.154 30.7441L58.2587 16.7529ZM88.7433 18.2851V16.7529H116.958V18.2851H103.96V45.5418H101.69V18.2851H88.7433Z" fill="white"/>
<path d="M0.307129 16.7527H3.1441L42.2643 62.3314L26.0978 45.5416L2.67987 18.93L2.57671 45.5416H0.307129V16.7527Z" fill="white"/>
<path d="M116.73 43.5473C117.199 43.5473 117.541 43.2676 117.541 42.9061C117.541 42.5446 117.199 42.2649 116.73 42.2649C116.266 42.2649 115.918 42.5446 115.918 42.9061C115.918 43.2676 116.266 43.5473 116.73 43.5473ZM118.96 41.8603C118.96 42.9276 119.948 43.6248 121.389 43.6248C122.923 43.6248 123.851 42.9061 123.851 41.6581V37.2642H122.614V41.6538C122.614 42.3466 122.167 42.7167 121.378 42.7167C120.671 42.7167 120.191 42.3725 120.174 41.8603H118.96ZM125.468 41.8044C125.556 42.9147 126.743 43.6248 128.51 43.6248C130.398 43.6248 131.579 42.8803 131.579 41.6925C131.579 40.7586 130.906 40.2422 129.272 39.9453L128.394 39.7774C127.356 39.5881 126.937 39.3342 126.937 38.8909C126.937 38.3314 127.588 37.9656 128.565 37.9656C129.492 37.9656 130.133 38.3228 130.249 38.8952H131.452C131.38 37.8494 130.199 37.1135 128.582 37.1135C126.843 37.1135 125.683 37.8494 125.683 38.9554C125.683 39.8678 126.34 40.41 127.781 40.6726L128.808 40.8662C129.862 41.0599 130.326 41.3439 130.326 41.8173C130.326 42.3682 129.597 42.7684 128.604 42.7684C127.538 42.7684 126.799 42.394 126.694 41.8044H125.468Z" fill="white"/>
</svg>
