<svg width="59" height="65" viewBox="0 0 59 65" fill="none" xmlns="http://www.w3.org/2000/svg">
<path d="M26.8382 1.26123C28.4235 0.353777 30.4885 0.349679 32.0725 1.26123C40.0414 5.76408 48.0128 10.2599 55.9804 14.7655C57.479 15.6096 58.4814 17.2774 58.4661 19.0042V46.0951C58.4773 47.8934 57.3758 49.601 55.7948 50.426C47.852 54.9041 39.9134 59.3876 31.972 63.8656C30.3539 64.7908 28.2475 64.7195 26.6799 63.7185C24.2987 62.3381 21.9134 60.9645 19.5319 59.5854C19.0453 59.2953 18.4967 59.0644 18.1531 58.5926C18.4568 58.1832 19 58.1322 19.4413 57.9534C20.4352 57.6373 21.3482 57.13 22.2613 56.6377C22.4922 56.4796 22.7741 56.5402 22.9955 56.6816C25.0317 57.8491 27.0499 59.0505 29.093 60.2069C29.5289 60.4585 29.9702 60.1244 30.3427 59.9168C38.137 55.5116 45.9408 51.1231 53.7337 46.7165C54.0225 46.5776 54.1821 46.2711 54.1586 45.9548C54.1641 37.0181 54.16 28.0798 54.1614 19.1431C54.1944 18.7842 53.9867 18.4542 53.6622 18.3074C45.747 13.8498 37.8359 9.38545 29.9221 4.92677C29.785 4.83251 29.6226 4.78193 29.4562 4.78169C29.2898 4.78144 29.1272 4.83154 28.9899 4.9254C21.076 9.38545 13.1663 13.8539 5.25251 18.3112C4.92915 18.4583 4.71214 18.7828 4.75062 19.1431C4.75199 28.0798 4.75062 37.0181 4.75062 45.9562C4.7369 46.1105 4.77079 46.2653 4.84774 46.3998C4.92469 46.5343 5.041 46.642 5.181 46.7083C7.29284 47.9059 9.40741 49.095 11.5206 50.2885C12.7111 50.9293 14.1728 51.31 15.4845 50.8191C16.642 50.4039 17.4533 49.2228 17.4312 47.9938C17.4421 39.1092 17.4258 30.2233 17.4394 21.3401C17.4105 20.9457 17.7846 20.6198 18.1681 20.6569C19.1828 20.6501 20.1989 20.6433 21.2136 20.6597C21.6371 20.6501 21.9286 21.0748 21.8762 21.4722C21.8721 30.413 21.8872 39.354 21.8694 48.2948C21.8721 50.6777 20.8932 53.2704 18.6891 54.4363C15.9738 55.8429 12.6178 55.5446 9.93526 54.1959C7.61301 53.0368 5.39688 51.6689 3.11585 50.4272C1.53071 49.6067 0.434717 47.8922 0.445875 46.0953V19.0042C0.429251 17.2417 1.47151 15.5436 3.01679 14.7117C10.9582 10.23 18.8982 5.74495 26.8382 1.26123Z" fill="#8CC84B"/>
<path d="M33.7664 20.0273C37.2299 19.8043 40.9378 19.8952 44.0546 21.6015C46.4677 22.909 47.8055 25.6532 47.8481 28.3341C47.7807 28.6957 47.4027 28.8952 47.0575 28.8704C46.0526 28.869 45.0474 28.8841 44.0425 28.8636C43.6162 28.88 43.3685 28.4869 43.315 28.1101C43.0262 26.8273 42.3267 25.5569 41.1193 24.9382C39.2659 24.0103 37.117 24.0569 35.096 24.0763C33.6206 24.1546 32.0341 24.2824 30.7842 25.15C29.8246 25.8072 29.5331 27.1338 29.8756 28.2023C30.1985 28.9694 31.0841 29.217 31.8087 29.4451C35.9827 30.5368 40.4059 30.4282 44.5002 31.8649C46.1953 32.4505 47.8536 33.5891 48.4338 35.3639C49.1928 37.7427 48.8601 40.5859 47.1677 42.4956C45.7952 44.067 43.7963 44.9223 41.8027 45.3869C39.1505 45.9782 36.3981 45.9933 33.7047 45.7307C31.172 45.442 28.5364 44.7766 26.5812 43.051C24.9094 41.5993 24.0928 39.3374 24.1738 37.1542C24.1932 36.7856 24.5603 36.5285 24.9135 36.5588C25.9254 36.5506 26.9374 36.5478 27.9494 36.5601C28.3536 36.5312 28.6532 36.8805 28.674 37.2615C28.8607 38.4837 29.32 39.7664 30.3857 40.491C32.4424 41.8179 35.0231 41.727 37.3782 41.7641C39.3292 41.6776 41.5194 41.6514 43.1116 40.3619C43.9517 39.6263 44.2005 38.3958 43.9735 37.3371C43.7276 36.4433 42.7926 36.0268 41.9896 35.7545C37.8691 34.451 33.3966 34.924 29.3159 33.45C27.6593 32.8645 26.0573 31.7576 25.4208 30.0557C24.5327 27.6469 24.9396 24.6674 26.8094 22.8223C28.6325 20.9869 31.2642 20.28 33.7664 20.027V20.0273Z" fill="#8CC84B"/>
</svg>
