<svg width="129" height="139" viewBox="0 0 129 139" fill="none" xmlns="http://www.w3.org/2000/svg">
<path d="M64.1886 80.8826C70.3663 80.8826 75.3743 75.8746 75.3743 69.6969C75.3743 63.5192 70.3663 58.5112 64.1886 58.5112C58.0109 58.5112 53.0029 63.5192 53.0029 69.6969C53.0029 75.8746 58.0109 80.8826 64.1886 80.8826Z" fill="#61DAFB"/>
<path fill-rule="evenodd" clip-rule="evenodd" d="M11.6172 63.8044C9.08414 66.0911 8.24593 68.0894 8.24593 69.6976C8.24593 71.3058 9.08414 73.3041 11.6172 75.5908C14.1498 77.877 18.0436 80.1229 23.2022 82.0925C33.4913 86.0211 47.981 88.5365 64.1886 88.5365C80.3962 88.5365 94.8859 86.0211 105.175 82.0925C110.334 80.1229 114.227 77.877 116.76 75.5908C119.293 73.3041 120.131 71.3058 120.131 69.6976C120.131 68.0894 119.293 66.0911 116.76 63.8044C114.227 61.5182 110.334 59.2723 105.175 57.3027C94.8859 53.3741 80.3962 50.8587 64.1886 50.8587C47.981 50.8587 33.4913 53.3741 23.2022 57.3027C18.0436 59.2723 14.1498 61.5182 11.6172 63.8044ZM20.2928 49.6829C31.7269 45.3171 47.2476 42.7024 64.1886 42.7024C81.1296 42.7024 96.6503 45.3171 108.084 49.6829C113.787 51.8604 118.684 54.5528 122.225 57.7501C125.767 60.947 128.288 64.9774 128.288 69.6976C128.288 74.4178 125.767 78.4483 122.225 81.6451C118.684 84.8424 113.787 87.5348 108.084 89.7123C96.6503 94.0781 81.1296 96.6928 64.1886 96.6928C47.2476 96.6928 31.7269 94.0781 20.2928 89.7123C14.5897 87.5348 9.69363 84.8424 6.15181 81.6451C2.61042 78.4483 0.0895996 74.4178 0.0895996 69.6976C0.0895996 64.9774 2.61042 60.947 6.15181 57.7501C9.69363 54.5528 14.5897 51.8604 20.2928 49.6829Z" fill="#61DAFB"/>
<path fill-rule="evenodd" clip-rule="evenodd" d="M43.0064 21.2224C39.7596 20.1721 37.6099 20.4453 36.2171 21.2494C34.8244 22.0535 33.5129 23.7786 32.7991 27.1156C32.0855 30.452 32.0874 34.9471 32.961 40.3993C34.7033 51.2743 39.7697 65.0805 47.8735 79.1167C55.9773 93.1528 65.4006 104.444 73.9474 111.39C78.2325 114.873 82.1243 117.122 85.3706 118.172C88.6174 119.222 90.7671 118.949 92.1598 118.145C93.5526 117.341 94.8641 115.616 95.5778 112.279C96.2915 108.942 96.2896 104.447 95.416 98.9951C93.6737 88.1201 88.6072 74.3139 80.5034 60.2778C72.3997 46.2416 62.9764 34.9508 54.4296 28.0044C50.1445 24.5218 46.2527 22.2726 43.0064 21.2224ZM59.5738 21.675C69.0717 29.3943 79.0965 41.5282 87.567 56.1996C96.0375 70.871 101.533 85.6196 103.47 97.7048C104.435 103.733 104.552 109.319 103.554 113.985C102.556 118.65 100.326 122.849 96.238 125.209C92.1502 127.569 87.3993 127.401 82.86 125.932C78.3202 124.464 73.5405 121.57 68.8032 117.719C59.3052 110 49.2805 97.8662 40.8099 83.1948C32.3394 68.5235 26.8435 53.7748 24.9073 41.6896C23.9416 35.6619 23.8252 30.0756 24.8232 25.4096C25.8211 20.7443 28.0512 16.5459 32.139 14.1858C36.2268 11.8258 40.9777 11.9936 45.5169 13.4621C50.0568 14.9308 54.8365 17.8247 59.5738 21.675Z" fill="#61DAFB"/>
<path fill-rule="evenodd" clip-rule="evenodd" d="M95.5779 27.115C94.8641 23.778 93.5526 22.0529 92.1599 21.2488C90.7671 20.4447 88.6174 20.1715 85.3706 21.2219C82.1244 22.272 78.2325 24.5212 73.9475 28.0039C65.4006 34.9502 55.9774 46.241 47.8736 60.2772C39.7698 74.3134 34.7033 88.1196 32.961 98.9945C32.0875 104.447 32.0855 108.942 32.7992 112.278C33.5129 115.615 34.8244 117.34 36.2172 118.144C37.6099 118.949 39.7596 119.222 43.0065 118.171C46.2527 117.121 50.1445 114.872 54.4296 111.389C62.9764 104.443 72.3997 93.1522 80.5035 79.1161C88.6073 65.0799 93.6737 51.2737 95.4161 40.3988C96.2896 34.9465 96.2915 30.4515 95.5779 27.115ZM103.47 41.6891C101.533 53.7742 96.0376 68.5229 87.5671 83.1942C79.0966 97.8656 69.0718 110 59.5738 117.719C54.8365 121.569 50.0568 124.463 45.517 125.932C40.9777 127.4 36.2268 127.568 32.139 125.208C28.0512 122.848 25.8211 118.65 24.8233 113.984C23.8253 109.318 23.9416 103.732 24.9074 97.7042C26.8436 85.6191 32.3395 70.8704 40.81 56.199C49.2805 41.5277 59.3053 29.3937 68.8032 21.6744C73.5405 17.8241 78.3202 14.9302 82.8601 13.4615C87.3993 11.993 92.1503 11.8252 96.238 14.1853C100.326 16.5453 102.556 20.7437 103.554 25.409C104.552 30.075 104.435 35.6613 103.47 41.6891Z" fill="#61DAFB"/>
</svg>
