<svg width="69" height="49" viewBox="0 0 69 49" fill="none" xmlns="http://www.w3.org/2000/svg">
<path d="M59.3087 28.1377C56.9387 28.1494 54.879 28.6866 53.1542 29.4807C52.5214 28.3012 51.8885 27.2502 51.7769 26.4794C51.6528 25.5801 51.5039 25.0312 51.6528 23.9568C51.8017 22.8824 52.4717 21.3525 52.4593 21.2357C52.4469 21.119 52.3104 20.5701 50.9455 20.5584C49.5806 20.5467 48.4018 20.8036 48.2653 21.1423C48.1288 21.481 47.8682 22.2518 47.6945 23.0459C47.4588 24.2138 44.9647 28.383 43.5377 30.5668C43.0786 29.7143 42.6815 28.9669 42.5947 28.3713C42.4706 27.472 42.3217 26.9232 42.4706 25.8487C42.6195 24.7743 43.2896 23.2444 43.2771 23.1277C43.2647 23.0109 43.1282 22.462 41.7633 22.4503C40.3984 22.4386 39.2196 22.6956 39.0831 23.0342C38.9466 23.3729 38.7977 24.167 38.5123 24.9378C38.2269 25.7086 34.9139 32.669 34.0453 34.4674C33.5986 35.39 33.214 36.1258 32.941 36.6279C32.941 36.6279 32.9286 36.663 32.8913 36.7214C32.6556 37.1535 32.5191 37.3871 32.5191 37.3871C32.5191 37.3871 32.5191 37.387 32.5191 37.3987C32.333 37.714 32.1344 38.006 32.0352 38.006C31.9607 38.006 31.8242 37.1652 32.06 36.0207C32.5563 33.6032 33.7351 29.8428 33.7227 29.7143C33.7227 29.6442 33.9461 28.9902 32.9534 28.6516C31.9855 28.3129 31.6381 28.8735 31.5512 28.8735C31.4644 28.8735 31.4023 29.072 31.4023 29.072C31.4023 29.072 32.4819 24.8444 29.3426 24.8444C27.382 24.8444 24.677 26.8648 23.3369 28.6866C22.4932 29.1187 20.6939 30.0413 18.7706 31.034C18.0385 31.4194 17.2816 31.8047 16.5744 32.1668C16.5247 32.1201 16.4751 32.0617 16.4255 32.015C12.6285 28.1961 5.60538 25.4984 5.90318 20.3715C6.01485 18.503 6.69731 13.598 19.3911 7.64203C29.8389 2.79547 38.1525 4.13849 39.5919 7.1165C41.6516 11.3675 35.1373 19.2621 24.342 20.4066C20.2224 20.8387 18.0634 19.3438 17.5174 18.7833C16.9466 18.1994 16.8598 18.1643 16.6488 18.2811C16.3014 18.4563 16.5247 18.9818 16.6488 19.2854C16.9714 20.0796 18.2991 21.481 20.545 22.17C22.5304 22.7773 27.3572 23.116 33.2016 20.9905C39.7408 18.6081 44.853 11.9864 43.3516 6.43915C41.8502 0.810135 31.9235 -1.04674 22.5304 2.09477C16.9466 3.96332 10.8913 6.90629 6.536 10.7368C1.36172 15.2914 0.54277 19.2504 0.877795 20.9088C2.08141 26.7947 10.7052 30.6252 14.1547 33.4631C13.981 33.5565 13.8197 33.6383 13.6832 33.7083C11.9585 34.5141 5.38203 37.7491 3.74413 41.1709C1.88287 45.0481 4.04193 47.8276 5.46889 48.2013C9.89867 49.3575 14.4525 47.2787 16.897 43.8452C19.3414 40.4118 19.0436 35.9506 17.9145 33.9069C17.9021 33.8835 17.8896 33.8602 17.8648 33.8368C18.3115 33.5915 18.7706 33.3346 19.2173 33.0894C20.0983 32.5989 20.9669 32.1434 21.7114 31.7697C21.2895 32.8558 20.9793 34.1521 20.8304 36.0207C20.6443 38.2162 21.5997 41.0658 22.853 42.1869C23.4114 42.6774 24.069 42.6891 24.4909 42.6891C25.9551 42.6891 26.6127 41.5446 27.3448 40.1899C28.2382 38.5315 29.0448 36.6046 29.0448 36.6046C29.0448 36.6046 28.0397 41.8132 30.7695 41.8132C31.7622 41.8132 32.7673 40.5986 33.214 39.9797C33.214 39.9913 33.214 39.9913 33.214 39.9913C33.214 39.9913 33.2388 39.9563 33.2884 39.8746C33.3877 39.7227 33.4497 39.6293 33.4497 39.6293C33.4497 39.6293 33.4497 39.6176 33.4497 39.606C33.8468 38.952 34.7402 37.4688 36.0679 35.0046C37.7802 31.8281 39.4306 27.8574 39.4306 27.8574C39.4306 27.8574 39.5795 28.8267 40.0882 30.4384C40.386 31.3843 41.0064 32.4237 41.5027 33.4281C41.1057 33.9536 40.8575 34.2455 40.8575 34.2455C40.8575 34.2455 40.8575 34.2455 40.8699 34.2572C40.5473 34.6543 40.1999 35.0864 39.8152 35.5068C38.4627 37.025 36.8496 38.7651 36.6263 39.2673C36.3657 39.8629 36.4277 40.295 36.9241 40.6453C37.2839 40.9023 37.9291 40.9373 38.5868 40.9023C39.8028 40.8205 40.659 40.5402 41.0809 40.3651C41.7385 40.1432 42.5078 39.8045 43.2275 39.3023C44.5552 38.3797 45.3617 37.0601 45.2873 35.32C45.2501 34.3623 44.915 33.4047 44.5056 32.5055C44.6297 32.342 44.7413 32.1785 44.8654 32.015C46.9624 29.1304 48.5879 25.9655 48.5879 25.9655C48.5879 25.9655 48.7368 26.9348 49.2456 28.5465C49.4937 29.364 50.0025 30.2515 50.4492 31.1157C48.4762 32.6222 47.2602 34.374 46.8259 35.5185C46.0442 37.644 46.6522 38.6016 47.8062 38.8235C48.3273 38.9286 49.0718 38.695 49.6178 38.4731C50.3127 38.2629 51.1316 37.9009 51.9134 37.3637C53.2411 36.4411 54.5191 35.1565 54.4447 33.4164C54.4074 32.6222 54.1841 31.8398 53.8739 31.0807C55.549 30.4267 57.7081 30.0647 60.4627 30.3683C66.3691 31.0223 67.5355 34.4908 67.3121 35.9506C67.0888 37.4104 65.8479 38.2045 65.4385 38.4498C65.029 38.695 64.8925 38.7768 64.9297 38.952C64.9794 39.2089 65.1779 39.1972 65.5253 39.1505C66.0093 39.0687 68.6274 37.971 68.7391 35.2849C68.9252 31.8515 65.4509 28.1027 59.3087 28.1377ZM13.7453 42.5956C11.7847 44.6043 9.0549 45.3634 7.87611 44.7211C6.61046 44.0321 7.10679 41.0658 9.51401 38.9403C10.9782 37.644 12.8643 36.4411 14.1175 35.7053C14.4029 35.5419 14.8248 35.3083 15.3335 35.0163C15.4204 34.9696 15.47 34.9463 15.47 34.9463C15.5693 34.8879 15.6686 34.8295 15.7678 34.7711C16.6488 37.8075 15.805 40.4818 13.7453 42.5956ZM28.0149 33.4631C27.3324 35.028 25.9054 39.0337 25.0369 38.8118C24.2924 38.625 23.8333 35.5886 24.888 32.5872C25.4215 31.0807 26.5507 29.2822 27.2083 28.5815C28.2754 27.4604 29.4542 27.0867 29.7396 27.5421C30.0995 28.1377 28.4368 32.4821 28.0149 33.4631ZM39.7904 38.7651C39.505 38.9052 39.232 38.9987 39.1079 38.9286C39.0211 38.8819 39.232 38.695 39.232 38.695C39.232 38.695 40.7086 37.2002 41.2918 36.5228C41.6268 36.1258 42.0239 35.6586 42.4458 35.1331C42.4458 35.1798 42.4458 35.2382 42.4458 35.2849C42.4458 37.0717 40.6093 38.2746 39.7904 38.7651ZM48.8733 36.8148C48.6624 36.6747 48.6996 36.2075 49.4069 34.7477C49.6799 34.1755 50.3251 33.2178 51.4294 32.2952C51.5535 32.669 51.6404 33.031 51.628 33.3697C51.6156 35.6236 49.9032 36.4644 48.8733 36.8148Z" fill="#F472B6"/>
</svg>
