<svg width="86" height="52" viewBox="0 0 86 52" fill="none" xmlns="http://www.w3.org/2000/svg">
<path d="M43.0407 0.367676C31.6269 0.367676 24.4937 6.07296 21.64 17.4824C25.9205 11.7772 30.914 9.63849 36.6204 11.0643C39.8765 11.8778 42.2036 14.2402 44.7801 16.8541C48.9761 21.1122 53.8326 26.0404 64.4414 26.0404C75.8541 26.0404 82.9884 20.3351 85.8411 8.92453C81.5616 14.6298 76.5681 16.7696 70.8607 15.3438C67.6055 14.5303 65.2785 12.1679 62.702 9.55393C58.506 5.29584 53.6485 0.367676 43.0407 0.367676ZM21.64 26.0404C10.2272 26.0404 3.09294 31.7456 0.240295 43.1562C4.5198 37.4509 9.51327 35.3112 15.2207 36.738C18.4758 37.5526 20.8029 39.9139 23.3794 42.5268C27.5754 46.7849 32.4329 51.7141 43.0407 51.7141C54.4545 51.7141 61.5877 46.0088 64.4414 34.5983C60.1608 40.3036 55.1674 42.4433 49.461 41.0165C46.2048 40.204 43.8777 37.8405 41.3013 35.2277C37.1053 30.9696 32.2488 26.0404 21.64 26.0404Z" fill="#06B6D4"/>
</svg>
