<svg width="82" height="54" viewBox="0 0 82 54" fill="none" xmlns="http://www.w3.org/2000/svg">
<path d="M35.6598 1.32827H36.4151C39.0469 1.32827 41.1805 3.46179 41.1805 6.09362C41.1805 8.72545 39.0469 10.859 36.4151 10.859H33.7177C29.5962 10.859 26.255 14.2001 26.255 18.3217V52.8515C26.255 53.0936 26.093 53.3058 25.8594 53.3695C25.3199 53.5134 18.2168 53.5133 16.6883 53.3515C15.9963 53.2904 15.4655 52.7108 15.4655 52.0161V18.3217C15.4655 14.2001 12.1243 10.859 8.00277 10.859H5.33256C2.68572 10.859 0.540039 8.70902 0.540039 6.06218C0.540039 3.44135 2.64878 1.30421 5.26943 1.27432C7.85891 1.23835 14.5124 1.23835 20.051 1.27432C25.5896 1.31028 32.6028 1.32827 35.6598 1.32827ZM77.7928 48.766C75.5989 51.0857 73.2432 52.3805 69.3231 53.4414C67.6147 53.909 67.327 53.9269 63.4787 53.909C59.6305 53.891 59.3248 53.891 57.4546 53.4055C52.6173 52.1647 48.7151 49.737 46.0537 46.3024C45.2984 45.3313 44.0577 43.3173 44.0577 43.0655C44.0577 42.9936 44.2375 42.8318 44.4712 42.7239C44.705 42.616 45.1906 42.3103 45.5862 42.0765C45.9818 41.8427 46.7011 41.4112 47.1866 41.1594C47.6721 40.9076 49.0748 40.0805 50.2976 39.3432C51.5204 38.6059 52.6353 38.0125 52.7612 38.0125C52.8871 38.0125 53.1208 38.2642 53.3007 38.5699C54.3796 40.3862 56.8971 42.7059 58.6774 43.4971C59.7743 43.9647 62.202 44.4862 63.3708 44.4862C64.4498 44.4862 66.4279 44.0186 67.4888 43.5331C68.6217 43.0116 69.1972 42.4901 69.8805 41.4471C70.3481 40.7098 70.402 40.512 70.384 39.1094C70.384 37.8147 70.3121 37.455 69.9524 36.8616C68.9454 35.2072 67.5788 34.3441 62.0401 31.8984C56.3217 29.3629 53.7502 27.8524 51.6642 25.8204C50.1178 24.3098 49.8121 23.8962 48.841 22.0081C47.5822 19.5805 47.4204 18.7892 47.4024 15.1748C47.3844 12.6392 47.4384 11.812 47.7081 10.9489C48.0857 9.65414 49.3085 7.15458 49.866 6.5252C51.0169 5.17651 51.4305 4.76292 52.2397 4.09756C54.6853 2.08353 58.4976 0.75283 62.148 0.626953C62.5616 0.626953 63.9283 0.698882 65.2051 0.788794C68.8735 1.0945 71.373 1.99362 73.7827 3.91774C75.5989 5.35634 78.3503 8.73704 78.0805 9.1866C77.9007 9.45634 70.7257 14.2397 70.2581 14.3835C69.9704 14.4734 69.7726 14.3655 69.377 13.898C66.9314 10.9669 65.9423 10.3375 63.5687 10.1936C61.8783 10.0857 60.9792 10.2835 59.8463 11.0388C58.6594 11.83 58.084 13.0348 58.084 14.7072C58.102 17.1528 59.0371 18.3037 62.4897 20.012C64.7195 21.109 66.6257 22.0081 66.7695 22.0081C66.9853 22.0081 71.6068 24.3098 72.8117 25.0291C78.4222 28.3199 80.706 31.7006 81.2994 37.5269C81.731 41.9147 80.4902 45.9248 77.7928 48.766Z" fill="#1E2235"/>
</svg>
