<svg width="75" height="85" viewBox="0 0 75 85" fill="none" xmlns="http://www.w3.org/2000/svg">
<path d="M74.0526 13.0186L39.1558 83.214C38.4352 84.6633 36.5841 84.6718 35.8529 83.2296L0.264197 13.0251C-0.53266 11.4537 0.662045 9.54991 2.24531 9.86851L37.1796 16.8924C37.4025 16.9372 37.6307 16.9367 37.8534 16.8911L72.057 9.87831C73.6351 9.55481 74.8353 11.4439 74.0526 13.0186Z" fill="url(#paint0_linear_51_5106)"/>
<path d="M53.8206 0.655122L27.9961 6.34746C27.7898 6.39294 27.6027 6.51426 27.4644 6.69236C27.326 6.87045 27.2442 7.09522 27.2318 7.33133L25.6433 37.512C25.6345 37.6776 25.6602 37.8431 25.7183 37.9955C25.7764 38.1479 25.8652 38.283 25.9778 38.39C26.0904 38.4971 26.2236 38.5731 26.3669 38.6121C26.5101 38.6511 26.6595 38.652 26.8032 38.6147L33.9932 36.7482C34.6658 36.5735 35.2738 37.2401 35.1353 38.001L32.9993 49.768C32.8556 50.5599 33.5164 51.2369 34.2038 51.0019L38.6449 49.4843C39.3332 49.2493 39.9948 49.9283 39.8492 50.7208L36.4545 69.2038C36.2421 70.36 37.6092 70.9904 38.1791 69.9993L38.5601 69.3373L59.6034 22.0959C59.956 21.305 59.3481 20.403 58.5762 20.5708L51.1749 22.1775C50.4796 22.3283 49.8879 21.5997 50.0841 20.8346L54.9146 1.99774C55.111 1.23062 54.517 0.501698 53.8209 0.655122H53.8206Z" fill="url(#paint1_linear_51_5106)"/>
<defs>
<linearGradient id="paint0_linear_51_5106" x1="-0.604729" y1="15.5319" x2="42.9554" y2="68.1219" gradientUnits="userSpaceOnUse">
<stop stop-color="#41D1FF"/>
<stop offset="1" stop-color="#BD34FE"/>
</linearGradient>
<linearGradient id="paint1_linear_51_5106" x1="40.4174" y1="2.20071" x2="50.1609" y2="61.6177" gradientUnits="userSpaceOnUse">
<stop stop-color="#FFEA83"/>
<stop offset="0.083" stop-color="#FFDD35"/>
<stop offset="1" stop-color="#FFA800"/>
</linearGradient>
</defs>
</svg>
