<svg width="159" height="157" viewBox="0 0 159 157" fill="none" xmlns="http://www.w3.org/2000/svg">
<path d="M2.40537 55.0068C2.40537 55.0068 -1.42519 52.2456 3.17149 48.5587L13.8811 38.9822C13.8811 38.9822 16.9456 35.7582 20.1856 38.5673L119.014 113.391V149.271C119.014 149.271 118.966 154.905 111.736 154.282L2.40537 55.0068Z" fill="#2489CA"/>
<path d="M27.8787 78.134L2.40542 101.293C2.40542 101.293 -0.212132 103.24 2.40542 106.72L14.2323 117.477C14.2323 117.477 17.0414 120.494 21.1912 117.062L48.1967 96.5846L27.8787 78.134Z" fill="#1070B3"/>
<path d="M72.6006 78.3254L119.318 42.6531L119.014 6.96492C119.014 6.96492 117.019 -0.823917 110.364 3.23011L48.1967 59.8109L72.6006 78.3254Z" fill="#0877B9"/>
<path d="M111.736 154.33C114.45 157.107 117.737 156.198 117.737 156.198L154.144 138.258C158.804 135.082 158.15 131.139 158.15 131.139V24.0109C158.15 19.3025 153.33 17.6745 153.33 17.6745L121.776 2.46393C114.881 -1.79758 110.364 3.23004 110.364 3.23004C110.364 3.23004 116.173 -0.951665 119.014 6.96485V148.616C119.014 149.59 118.807 150.548 118.392 151.409C117.562 153.085 115.758 154.649 111.433 153.995L111.736 154.33Z" fill="#3C99D4"/>
</svg>
