<svg width="81" height="81" viewBox="0 0 81 81" fill="none" xmlns="http://www.w3.org/2000/svg">
<path d="M6.46278 40.5242C6.46278 54.0076 14.2983 65.6588 25.6603 71.181L9.41186 26.6616C7.46404 31.0234 6.45909 35.7473 6.46278 40.5242V40.5242ZM63.5207 38.8053C63.5207 34.5956 62.0085 31.6802 60.7116 29.411C58.9849 26.6052 57.3671 24.2291 57.3671 21.4232C57.3671 18.292 59.7413 15.3773 63.0864 15.3773C63.2374 15.3773 63.3807 15.3961 63.5284 15.4045C57.4676 9.85247 49.3936 6.46265 40.5256 6.46265C28.6256 6.46265 18.156 12.5682 12.0654 21.816C12.8645 21.84 13.6183 21.8562 14.2574 21.8562C17.8203 21.8562 23.3354 21.4239 23.3354 21.4239C25.1716 21.3156 25.3881 24.0126 23.5545 24.2297C23.5545 24.2297 21.7085 24.4468 19.6552 24.5544L32.0595 61.4503L39.5145 39.0937L34.2068 24.5538C32.3725 24.4462 30.6349 24.2291 30.6349 24.2291C28.7993 24.1215 29.0145 21.315 30.85 21.4232C30.85 21.4232 36.4753 21.8555 39.8224 21.8555C43.3846 21.8555 48.9004 21.4232 48.9004 21.4232C50.7379 21.315 50.9537 24.0119 49.1188 24.2291C49.1188 24.2291 47.2696 24.4462 45.2202 24.5538L57.5298 61.1703L60.9268 49.8167C62.4 45.1053 63.5207 41.7213 63.5207 38.8053V38.8053Z" fill="#00749A"/>
<path d="M41.1232 43.5039L30.9032 73.2007C34.0277 74.1216 37.2683 74.5891 40.5256 74.5891C44.4923 74.5891 48.2963 73.9027 51.8372 72.6582C51.7422 72.5096 51.661 72.3525 51.5947 72.189L41.1232 43.5039ZM70.4144 24.1819C70.5609 25.2669 70.6439 26.4323 70.6439 27.6845C70.6439 31.1411 69.9983 35.0267 68.0539 39.8852L57.6491 69.9678C67.7758 64.0625 74.5872 53.0913 74.5872 40.5243C74.5963 34.8122 73.1609 29.1905 70.4144 24.1819V24.1819Z" fill="#00749A"/>
<path d="M40.5256 0.818604C18.6317 0.818604 0.818604 18.6304 0.818604 40.5242C0.818604 62.4206 18.6311 80.2324 40.5256 80.2324C62.4188 80.2324 80.2345 62.4213 80.2345 40.5242C80.2339 18.6304 62.4188 0.818604 40.5256 0.818604ZM40.5256 78.4118C19.6357 78.4118 2.63926 61.4154 2.63926 40.5242C2.63926 19.635 19.6351 2.6399 40.5256 2.6399C61.4148 2.6399 78.41 19.635 78.41 40.5242C78.41 61.4154 61.4142 78.4118 40.5256 78.4118Z" fill="#00749A"/>
</svg>
